<?xml version="1.0" ?><!DOCTYPE svg  PUBLIC '-//W3C//DTD SVG 1.1//EN'  'http://www.w3.org/Graphics/SVG/1.1/DTD/svg11.dtd'><svg enable-background="new 0 0 512 512" height="512px" id="Layer_1" version="1.1" viewBox="0 0 512 512" width="512px" xml:space="preserve" xmlns="http://www.w3.org/2000/svg" xmlns:xlink="http://www.w3.org/1999/xlink"><path d="M400.398,324.883l-93.392-59.014l92.734-68.584c4.557-3.363,5.518-9.781,2.148-14.331s-9.786-5.511-14.337-2.143  L256.05,278.062l-0.055-0.044l-0.055,0.044l-131.497-97.251c-4.545-3.369-10.962-2.408-14.331,2.143s-2.408,10.968,2.143,14.331  l92.734,68.584l-93.386,59.014c-4.788,3.026-6.213,9.354-3.192,14.144c1.955,3.081,5.274,4.776,8.67,4.776  c1.878,0,3.767-0.514,5.467-1.591l100.124-63.266l27.237,20.146c1.806,1.336,3.943,2.01,6.086,2.01c2.142,0,4.285-0.674,6.097-2.01  l27.231-20.146l100.117,63.266c1.701,1.077,3.602,1.591,5.468,1.591c3.401,0,6.727-1.695,8.676-4.776  C406.605,334.237,405.18,327.909,400.398,324.883z"/><path d="M390.948,119.897H121.046c-39.629,0-71.87,35.129-71.87,78.304v115.592c0,43.181,32.241,78.31,71.87,78.31h269.902  c39.636,0,71.876-35.129,71.876-78.31V198.201C462.824,155.026,430.584,119.897,390.948,119.897z M439.298,313.793  c0,29.088-21.647,52.675-48.35,52.675H121.046c-26.696,0-48.344-23.587-48.344-52.675V198.201c0-29.087,21.648-52.668,48.344-52.668  h269.902c26.702,0,48.35,23.581,48.35,52.668V313.793z"/></svg>